# xmcd
#
# Track frame offsets: 
#        150
#        14472
#        28917
#        58463
#        82168
#        87425
#        103433
#        157391
#        215602
#        229210
#        253263
#
# Disc length: 3601 seconds
#
# Revision: 0
# Processed by: cddbd v1.5.2PL0 Copyright (c) Steve Scherf et al.
# Submitted via: ExactAudioCopy v0.99pb5
#
DISCID=ae0e0f0b
DTITLE=Jackie Leven - Boîte de Pandore
DYEAR=2010
DGENRE=Blues
TTITLE0=Away from it all with jackie leven
TTITLE1=Cinnamon girl bluesology
TTITLE2=Ballad of a simple heart
TTITLE3=Deep choking wooded death fix (beautiful version)
TTITLE4=Talking about russian poets anna akhmatova and marina tsvetaye
TTITLE4=va
TTITLE5=Hand is pale with holy kisses
TTITLE6=Lovers at the gun club (plus story of shannon doyle)
TTITLE7=King of infinite space (plus story of basil and ronnie)
TTITLE8=Meet me at the top of the world
TTITLE9=Heartbeat
TTITLE10=Last summer
EXTD=
EXTT0=
EXTT1=
EXTT2=
EXTT3=
EXTT4=
EXTT5=
EXTT6=
EXTT7=
EXTT8=
EXTT9=
EXTT10=
PLAYORDER=
